# xmcd
#
# Track frame offsets:
#	182
#	16077
#	33050
#	48525
#	71130
#	88860
#	115270
#	134832
#	152172
#	168720
#	187277
#	203775
#	225180
#
# Disc length: 3214 seconds
#
# Revision: 1
# Processed by: cddbd v1.5.2PL0 Copyright (c) Steve Scherf et al.
# Submitted via: EZCDAudioConverter 1.6.1.1
#
DISCID=b50c8c0d
DTITLE=Mick Abrahams - Mick´s Back
DYEAR=1997
DGENRE=Blues
TTITLE0=The River´s Invitation
TTITLE1=Bad Feeling
TTITLE2=Cold Women With Warm Hearts
TTITLE3=Time To Love
TTITLE4=Leaving Home Blues
TTITLE5=Long Grey Mare
TTITLE6=You´d Be A Millionaire
TTITLE7=Send Me Some Lovin
TTITLE8=Yolanda
TTITLE9=Little Red Rooster
TTITLE10=Ain´t No Love In The Heart Of The City
TTITLE11=So Much Hard Luck
TTITLE12=Skyline Drive
EXTD=
EXTT0=
EXTT1=
EXTT2=
EXTT3=
EXTT4=
EXTT5=
EXTT6=
EXTT7=
EXTT8=
EXTT9=
EXTT10=
EXTT11=
EXTT12=
PLAYORDER=
